<svg data-v-423bf9ae="" xmlns="http://www.w3.org/2000/svg" viewBox="0 0 452 90" class="iconLeft"><!----><!----><!----><g data-v-423bf9ae="" id="a955a340-2c5c-445f-89d7-37687096b5a3" fill="black" transform="matrix(4.158004070067766,0,0,4.158004070067766,106.25779934418549,9.760916580298485)"><path d="M6.45 1.26L6.45 1.26Q8.06 1.26 9.33 1.97L9.33 1.97L9.33 1.97Q10.60 2.69 11.30 3.96L11.30 3.96L11.30 3.96Q12.01 5.24 12.01 6.86L12.01 6.86L12.01 6.86Q12.01 8.48 11.30 9.77L11.30 9.77L11.30 9.77Q10.60 11.05 9.34 11.76L9.34 11.76L9.34 11.76Q8.08 12.47 6.45 12.47L6.45 12.47L6.45 12.47Q4.83 12.47 3.56 11.76L3.56 11.76L3.56 11.76Q2.30 11.05 1.60 9.77L1.60 9.77L1.60 9.77Q0.90 8.48 0.90 6.86L0.90 6.86L0.90 6.86Q0.90 5.24 1.60 3.96L1.60 3.96L1.60 3.96Q2.30 2.69 3.56 1.97L3.56 1.97L3.56 1.97Q4.83 1.26 6.45 1.26L6.45 1.26ZM6.45 2.58L6.45 2.58Q5.25 2.58 4.30 3.14L4.30 3.14L4.30 3.14Q3.36 3.70 2.83 4.68L2.83 4.68L2.83 4.68Q2.30 5.66 2.30 6.86L2.30 6.86L2.30 6.86Q2.30 8.06 2.83 9.04L2.83 9.04L2.83 9.04Q3.36 10.02 4.31 10.59L4.31 10.59L4.31 10.59Q5.26 11.16 6.45 11.16L6.45 11.16L6.45 11.16Q7.64 11.16 8.60 10.59L8.60 10.59L8.60 10.59Q9.55 10.02 10.08 9.04L10.08 9.04L10.08 9.04Q10.61 8.06 10.61 6.86L10.61 6.86L10.61 6.86Q10.61 5.66 10.08 4.68L10.08 4.68L10.08 4.68Q9.55 3.70 8.60 3.14L8.60 3.14L8.60 3.14Q7.66 2.58 6.45 2.58L6.45 2.58ZM19.96 11.26L19.96 11.26Q20.16 11.47 20.16 11.75L20.16 11.75L20.16 11.75Q20.16 12.00 19.98 12.17L19.98 12.17L19.98 12.17Q19.81 12.33 19.53 12.33L19.53 12.33L19.53 12.33Q19.19 12.33 19.03 12.11L19.03 12.11L16.80 9.45L14.69 12.11L14.69 12.11Q14.48 12.33 14.18 12.33L14.18 12.33L14.18 12.33Q13.90 12.33 13.74 12.17L13.74 12.17L13.74 12.17Q13.58 12.00 13.58 11.75L13.58 11.75L13.58 11.75Q13.58 11.47 13.78 11.23L13.78 11.23L15.95 8.51L13.64 5.78L13.64 5.78Q13.43 5.53 13.43 5.25L13.43 5.25L13.43 5.25Q13.43 5.01 13.59 4.84L13.59 4.84L13.59 4.84Q13.75 4.68 14.04 4.68L14.04 4.68L14.04 4.68Q14.38 4.68 14.57 4.91L14.57 4.91L16.87 7.66L18.93 4.91L18.93 4.91Q19.11 4.68 19.45 4.68L19.45 4.68L19.45 4.68Q19.73 4.68 19.89 4.85L19.89 4.85L19.89 4.85Q20.05 5.03 20.05 5.28L20.05 5.28L20.05 5.28Q20.05 5.59 19.85 5.84L19.85 5.84L17.74 8.60L19.96 11.26ZM27.80 4.75L27.80 4.75Q28.24 4.91 28.24 5.29L28.24 5.29L28.24 5.29Q28.24 5.43 28.15 5.63L28.15 5.63L23.87 15.26L23.87 15.26Q23.70 15.69 23.32 15.69L23.32 15.69L23.32 15.69Q23.18 15.69 22.99 15.61L22.99 15.61L22.99 15.61Q22.57 15.43 22.57 15.06L22.57 15.06L22.57 15.06Q22.57 14.90 22.65 14.73L22.65 14.73L24.05 11.58L20.90 5.60L20.90 5.60Q20.83 5.47 20.83 5.31L20.83 5.31L20.83 5.31Q20.83 5.12 20.94 4.97L20.94 4.97L20.94 4.97Q21.06 4.82 21.24 4.73L21.24 4.73L21.24 4.73Q21.36 4.68 21.52 4.68L21.52 4.68L21.52 4.68Q21.91 4.68 22.11 5.07L22.11 5.07L24.67 10.16L26.92 5.08L26.92 5.08Q27.10 4.68 27.47 4.68L27.47 4.68L27.47 4.68Q27.65 4.68 27.80 4.75L27.80 4.75ZM32.97 4.62L32.97 4.62Q34.08 4.62 34.95 5.12L34.95 5.12L34.95 5.12Q35.83 5.61 36.32 6.50L36.32 6.50L36.32 6.50Q36.82 7.38 36.82 8.51L36.82 8.51L36.82 11.54L36.82 11.54Q36.82 12.64 36.33 13.55L36.33 13.55L36.33 13.55Q35.84 14.46 34.95 14.99L34.95 14.99L34.95 14.99Q34.06 15.51 32.94 15.51L32.94 15.51L32.94 15.51Q31.93 15.51 31.07 15.11L31.07 15.11L31.07 15.11Q30.20 14.71 29.61 13.97L29.61 13.97L29.61 13.97Q29.46 13.78 29.46 13.58L29.46 13.58L29.46 13.58Q29.46 13.29 29.75 13.08L29.75 13.08L29.75 13.08Q29.95 12.95 30.14 12.95L30.14 12.95L30.14 12.95Q30.49 12.95 30.72 13.24L30.72 13.24L30.72 13.24Q31.09 13.73 31.67 13.99L31.67 13.99L31.67 13.99Q32.24 14.25 32.97 14.25L32.97 14.25L32.97 14.25Q33.66 14.25 34.22 13.92L34.22 13.92L34.22 13.92Q34.78 13.59 35.11 12.96L35.11 12.96L35.11 12.96Q35.45 12.32 35.45 11.44L35.45 11.44L35.45 10.75L35.45 10.75Q35.01 11.52 34.30 11.96L34.30 11.96L34.30 11.96Q33.59 12.39 32.69 12.39L32.69 12.39L32.69 12.39Q31.65 12.39 30.84 11.89L30.84 11.89L30.84 11.89Q30.02 11.40 29.56 10.51L29.56 10.51L29.56 10.51Q29.11 9.63 29.11 8.51L29.11 8.51L29.11 8.51Q29.11 7.38 29.60 6.50L29.60 6.50L29.60 6.50Q30.09 5.61 30.97 5.12L30.97 5.12L30.97 5.12Q31.85 4.62 32.97 4.62L32.97 4.62ZM32.97 11.13L32.97 11.13Q33.68 11.13 34.25 10.79L34.25 10.79L34.25 10.79Q34.82 10.46 35.13 9.86L35.13 9.86L35.13 9.86Q35.45 9.27 35.45 8.51L35.45 8.51L35.45 8.51Q35.45 7.76 35.13 7.15L35.13 7.15L35.13 7.15Q34.82 6.55 34.25 6.22L34.25 6.22L34.25 6.22Q33.68 5.88 32.97 5.88L32.97 5.88L32.97 5.88Q32.26 5.88 31.69 6.22L31.69 6.22L31.69 6.22Q31.12 6.55 30.80 7.15L30.80 7.15L30.80 7.15Q30.48 7.76 30.48 8.51L30.48 8.51L30.48 8.51Q30.48 9.27 30.80 9.86L30.80 9.86L30.80 9.86Q31.12 10.46 31.69 10.79L31.69 10.79L31.69 10.79Q32.26 11.13 32.97 11.13L32.97 11.13ZM45.82 8.39L45.82 8.39Q45.82 8.65 45.64 8.83L45.64 8.83L45.64 8.83Q45.46 9.00 45.18 9.00L45.18 9.00L39.86 9.00L39.86 9.00Q40.01 9.98 40.75 10.58L40.75 10.58L40.75 10.58Q41.48 11.19 42.55 11.19L42.55 11.19L42.55 11.19Q42.97 11.19 43.42 11.03L43.42 11.03L43.42 11.03Q43.88 10.88 44.17 10.65L44.17 10.65L44.17 10.65Q44.37 10.50 44.63 10.50L44.63 10.50L44.63 10.50Q44.90 10.50 45.05 10.64L45.05 10.64L45.05 10.64Q45.30 10.85 45.30 11.12L45.30 11.12L45.30 11.12Q45.30 11.37 45.08 11.54L45.08 11.54L45.08 11.54Q44.60 11.91 43.90 12.15L43.90 12.15L43.90 12.15Q43.19 12.39 42.55 12.39L42.55 12.39L42.55 12.39Q41.40 12.39 40.49 11.89L40.49 11.89L40.49 11.89Q39.58 11.40 39.07 10.51L39.07 10.51L39.07 10.51Q38.56 9.63 38.56 8.51L38.56 8.51L38.56 8.51Q38.56 7.39 39.04 6.50L39.04 6.50L39.04 6.50Q39.52 5.61 40.38 5.12L40.38 5.12L40.38 5.12Q41.24 4.62 42.34 4.62L42.34 4.62L42.34 4.62Q43.41 4.62 44.20 5.10L44.20 5.10L44.20 5.10Q44.98 5.57 45.40 6.43L45.40 6.43L45.40 6.43Q45.82 7.28 45.82 8.39L45.82 8.39ZM42.34 5.82L42.34 5.82Q41.31 5.82 40.68 6.38L40.68 6.38L40.68 6.38Q40.04 6.94 39.87 7.88L39.87 7.88L44.53 7.88L44.53 7.88Q44.41 6.94 43.83 6.38L43.83 6.38L43.83 6.38Q43.26 5.82 42.34 5.82L42.34 5.82ZM51.45 4.61L51.45 4.61Q52.42 4.61 53.19 5.03L53.19 5.03L53.19 5.03Q53.96 5.45 54.39 6.25L54.39 6.25L54.39 6.25Q54.82 7.06 54.82 8.19L54.82 8.19L54.82 11.63L54.82 11.63Q54.82 11.94 54.62 12.14L54.62 12.14L54.62 12.14Q54.42 12.35 54.11 12.35L54.11 12.35L54.11 12.35Q53.80 12.35 53.60 12.14L53.60 12.14L53.60 12.14Q53.40 11.94 53.40 11.63L53.40 11.63L53.40 8.19L53.40 8.19Q53.40 7.06 52.79 6.47L52.79 6.47L52.79 6.47Q52.18 5.89 51.17 5.89L51.17 5.89L51.17 5.89Q50.58 5.89 50.10 6.13L50.10 6.13L50.10 6.13Q49.62 6.37 49.34 6.78L49.34 6.78L49.34 6.78Q49.07 7.18 49.07 7.69L49.07 7.69L49.07 11.63L49.07 11.63Q49.07 11.94 48.87 12.14L48.87 12.14L48.87 12.14Q48.68 12.35 48.36 12.35L48.36 12.35L48.36 12.35Q48.05 12.35 47.85 12.14L47.85 12.14L47.85 12.14Q47.64 11.94 47.64 11.63L47.64 11.63L47.64 5.39L47.64 5.39Q47.64 5.07 47.85 4.87L47.85 4.87L47.85 4.87Q48.05 4.68 48.36 4.68L48.36 4.68L48.36 4.68Q48.68 4.68 48.87 4.87L48.87 4.87L48.87 4.87Q49.07 5.07 49.07 5.39L49.07 5.39L49.07 5.54L49.07 5.54Q49.52 5.10 50.13 4.85L50.13 4.85L50.13 4.85Q50.75 4.61 51.45 4.61L51.45 4.61ZM60.59 1.40L60.59 1.40Q62.17 1.40 63.41 2.10L63.41 2.10L63.41 2.10Q64.64 2.80 65.32 4.04L65.32 4.04L65.32 4.04Q66.01 5.28 66.01 6.86L66.01 6.86L66.01 6.86Q66.01 8.44 65.32 9.69L65.32 9.69L65.32 9.69Q64.64 10.93 63.41 11.63L63.41 11.63L63.41 11.63Q62.17 12.33 60.59 12.33L60.59 12.33L58.06 12.33L58.06 12.33Q57.75 12.33 57.54 12.12L57.54 12.12L57.54 12.12Q57.33 11.91 57.33 11.61L57.33 11.61L57.33 2.13L57.33 2.13Q57.33 1.81 57.54 1.60L57.54 1.60L57.54 1.60Q57.75 1.40 58.06 1.40L58.06 1.40L60.59 1.40ZM60.59 11.05L60.59 11.05Q61.75 11.05 62.67 10.51L62.67 10.51L62.67 10.51Q63.59 9.98 64.10 9.02L64.10 9.02L64.10 9.02Q64.61 8.06 64.61 6.86L64.61 6.86L64.61 6.86Q64.61 5.66 64.10 4.70L64.10 4.70L64.10 4.70Q63.59 3.75 62.67 3.22L62.67 3.22L62.67 3.22Q61.75 2.69 60.59 2.69L60.59 2.69L58.79 2.69L58.79 11.05L60.59 11.05ZM75.03 8.39L75.03 8.39Q75.03 8.65 74.84 8.83L74.84 8.83L74.84 8.83Q74.66 9.00 74.38 9.00L74.38 9.00L69.06 9.00L69.06 9.00Q69.22 9.98 69.95 10.58L69.95 10.58L69.95 10.58Q70.69 11.19 71.75 11.19L71.75 11.19L71.75 11.19Q72.17 11.19 72.63 11.03L72.63 11.03L72.63 11.03Q73.08 10.88 73.37 10.65L73.37 10.65L73.37 10.65Q73.57 10.50 73.84 10.50L73.84 10.50L73.84 10.50Q74.10 10.50 74.26 10.64L74.26 10.64L74.26 10.64Q74.51 10.85 74.51 11.12L74.51 11.12L74.51 11.12Q74.51 11.37 74.28 11.54L74.28 11.54L74.28 11.54Q73.81 11.91 73.10 12.15L73.10 12.15L73.10 12.15Q72.39 12.39 71.75 12.39L71.75 12.39L71.75 12.39Q70.60 12.39 69.69 11.89L69.69 11.89L69.69 11.89Q68.78 11.40 68.27 10.51L68.27 10.51L68.27 10.51Q67.76 9.63 67.76 8.51L67.76 8.51L67.76 8.51Q67.76 7.39 68.24 6.50L68.24 6.50L68.24 6.50Q68.73 5.61 69.59 5.12L69.59 5.12L69.59 5.12Q70.45 4.62 71.54 4.62L71.54 4.62L71.54 4.62Q72.62 4.62 73.40 5.10L73.40 5.10L73.40 5.10Q74.19 5.57 74.61 6.43L74.61 6.43L74.61 6.43Q75.03 7.28 75.03 8.39L75.03 8.39ZM71.54 5.82L71.54 5.82Q70.52 5.82 69.88 6.38L69.88 6.38L69.88 6.38Q69.24 6.94 69.08 7.88L69.08 7.88L73.74 7.88L73.74 7.88Q73.61 6.94 73.04 6.38L73.04 6.38L73.04 6.38Q72.46 5.82 71.54 5.82L71.54 5.82ZM82.74 4.77L82.74 4.77Q82.92 4.86 83.02 5.00L83.02 5.00L83.02 5.00Q83.12 5.15 83.12 5.33L83.12 5.33L83.12 5.33Q83.12 5.46 83.05 5.60L83.05 5.60L80.08 11.86L80.08 11.86Q79.87 12.32 79.44 12.32L79.44 12.32L79.44 12.32Q79.20 12.32 79.04 12.21L79.04 12.21L79.04 12.21Q78.89 12.11 78.76 11.86L78.76 11.86L75.80 5.60L75.80 5.60Q75.74 5.49 75.74 5.35L75.74 5.35L75.74 5.35Q75.74 4.97 76.13 4.77L76.13 4.77L76.13 4.77Q76.26 4.70 76.43 4.70L76.43 4.70L76.43 4.70Q76.59 4.70 76.75 4.79L76.75 4.79L76.75 4.79Q76.90 4.89 76.99 5.05L76.99 5.05L79.42 10.30L81.83 5.05L81.83 5.05Q81.91 4.89 82.08 4.79L82.08 4.79L82.08 4.79Q82.24 4.70 82.42 4.70L82.42 4.70L82.42 4.70Q82.60 4.70 82.74 4.77L82.74 4.77Z"></path></g><!----><g data-v-423bf9ae="" id="b7b915d1-f179-4ee5-9684-3cf122b0f65c" transform="matrix(2.8125,0,0,2.8125,0,0)" stroke="none" fill="black"><path d="M4.029 14.362L14.362 4.028l.707.707L4.736 15.07zM17.135 27.47L27.47 17.135l.707.707-10.333 10.333zM4.029 17.841l.707-.707 10.333 10.334-.707.707zM17.135 4.735l.708-.707L28.176 14.36l-.707.707z"></path><g><path d="M16 1.414l1.683 1.683L16 4.779l-1.683-1.683L16 1.414M16 0l-3.097 3.097L16 6.194l3.097-3.097L16 0zM16 27.221l1.683 1.683L16 30.586l-1.683-1.683L16 27.221m0-1.415l-3.097 3.097L16 32l3.097-3.097L16 25.806zM3.097 14.317L4.779 16l-1.683 1.683L1.414 16l1.683-1.683m0-1.414L0 16l3.097 3.097L6.194 16l-3.097-3.097zM28.903 14.317L30.586 16l-1.683 1.683L27.221 16l1.682-1.683m0-1.414L25.806 16l3.097 3.097L32 16l-3.097-3.097z"></path></g></g><!----></svg>